# AST/ASF file generated using VICON BodyLanguage
# -----------------------------------------------
:version 1.10
:name VICON
:units
  mass 1.0
  length 0.45
  angle deg
:documentation
   .ast/.asf automatically generated from VICON data using
   VICON BodyBuilder and BodyLanguage model FoxedUp or BRILLIANT.MOD
:root
   order TX TY TZ RX RY RZ
   axis XYZ
   position 0 0 0  
   orientation 0 0 0 
:bonedata
  begin
     id 1 
     name lhipjoint
     direction 0.646657 -0.683706 0.338203 
     length 2.4948 
     axis 0 0 0  XYZ
  end
  begin
     id 2 
     name lfemur
     direction 0.34202 -0.939693 0  
     length 6.79491  
     axis 0 0 20  XYZ
    dof rx ry rz
    limits (-160.0 20.0)
           (-70.0 70.0)
           (-60.0 70.0)
  end
  begin
     id 3 
     name ltibia
     direction 0.34202 -0.939693 0   
     length 7.56807   
     axis 0 0 20   XYZ
    dof rx
    limits (-10.0 170.0)
  end
  begin
     id 4 
     name lfoot
     direction 0.0679796 -0.186772 0.980048   
     length 2.53018   
     axis -90 7.62852e-016 20   XYZ
    dof rx rz
    limits (-45.0 90.0)
           (-70.0 20.0)
  end
  begin
     id 5 
     name ltoes
     direction 1.53625e-011 -4.21881e-011 1   
     length 1.26912   
     axis -90 7.62852e-016 20   XYZ
    dof rx
    limits (-90.0 20.0)
  end
  begin
     id 6 
     name rhipjoint
     direction -0.618868 -0.704065 0.348274   
     length 2.42265  
     axis 0 0 0  XYZ 
  end
  begin
     id 7 
     name rfemur
     direction -0.34202 -0.939693 0   
     length 6.73814   
     axis 0 0 -20   XYZ
    dof rx ry rz
    limits (-160.0 20.0)
           (-70.0 70.0)
           (-70.0 60.0)
  end
  begin
     id 8 
     name rtibia
     direction -0.34202 -0.939693 0   
     length 7.66799   
     axis 0 0 -20   XYZ
    dof rx
    limits (-10.0 170.0)
 end
 begin
     id 9 
     name rfoot
     direction -0.0727352 -0.199838 0.977125   
     length 2.57224  
     axis -90 -7.62852e-016 -20   XYZ
    dof rx rz
    limits (-45.0 90.0)
           (-20.0 70.0)
  end
  begin
     id 10 
     name rtoes
     direction -1.53501e-011 -4.21858e-011 1   
     length 1.28858   
     axis -90 -7.62852e-016 -20   XYZ
    dof rx
    limits (-90.0 20.0)
  end
  begin
     id 11 
     name lowerback
     direction -0.0172471 0.995767 -0.0902851   
     length 2.20206   
     axis 0 0 0   XYZ
    dof rx ry rz
    limits (-20.0 45.0)
           (-30.0 30.0)
           (-30.0 30.0)
  end
  begin
     id 12 
     name upperback
     direction -0.000110737 0.999714 0.0239043   
     length 2.19523   
     axis 0 0 0   XYZ
    dof rx ry rz
    limits (-20.0 45.0)
           (-30.0 30.0)
           (-30.0 30.0)
  end
  begin
     id 13 
     name thorax
     direction 0.00704869 0.997783 0.0661741   
     length 2.21977   
     axis 0 0 0   XYZ
    dof rx ry rz
    limits (-20.0 45.0)
           (-30.0 30.0)
           (-30.0 30.0)
  end
  begin
     id 14 
     name lowerneck
     direction -0.00407501 0.995527 0.0943846   
     length 1.83142   
     axis 0 0 0   XYZ
    dof rx ry rz
    limits (-20.0 45.0)
           (-30.0 30.0)
           (-30.0 30.0)
  end
  begin
     id 15 
     name upperneck
     direction 0.0640586 0.986486 -0.150807   
     length 1.84616   
     axis 0 0 0   XYZ
    dof rx ry rz
    limits (-20.0 45.0)
           (-30.0 30.0)
           (-30.0 30.0)
  end
  begin
     id 16
     name head
     direction 0.0188017 0.99791 -0.0618239  
     length 1.85932  
     axis 0 0 0   XYZ
    dof rx ry rz
    limits (-20.0 45.0)
           (-30.0 30.0)
           (-30.0 30.0)
  end
  begin
     id 17 
     name lclavicle
     direction 0.976074 0.206905 0.066852  
     length 3.81043  
     axis 0 0 0   XYZ
    dof ry rz
    limits (-20.0 10.0)
           (0.0 20.0)
  end
  begin
     id 18 
     name lhumerus
     direction 1 -4.48971e-011 1.86916e-027   
     length 5.37587   
     axis 180 -30 -90   XYZ
    dof rx ry rz
    limits (-60.0 90.0)
           (-90.0 90.0)
           (-90.0 90.0)
  end
  begin
     id 19
     name lradius
     direction 1 -4.48968e-011 1.69187e-027   
     length 3.35977   
     axis 180 -30 -90   XYZ
    dof rx
    limits (-10.0 170.0)
  end
  begin
     id 20
     name lwrist
     direction 1 -4.48968e-011 5.8978e-027   
     length 1.67988   
     axis -3.27506e-015 90 90   XYZ
    dof ry
    limits (-180.0 0.0)
 end
  begin
     id 21 
     name lhand
     direction 1 -4.49028e-011 1.18071e-026   
     length 0.561859   
     axis -7.52654e-015 90 90   XYZ
    dof rx rz
    limits (-90.0 90.0)
           (-45.0 45.0)
  end
  begin
     id 22 
     name lfingers
     direction 1 -4.48927e-011 2.35758e-026   
     length 0.452985   
     axis -1.50534e-014 90 90   XYZ
    dof rx
    limits (0.0 90.0)
  end
  begin
     id 23
     name lthumb
     direction 0.707107 -6.34898e-011 0.707107   
     length 0.650399   
     axis -90 45 5.69224e-014   XYZ
    dof rx rz
    limits (-45.0 45.0)
           (-45.0 45.0)
  end
  begin
     id 24 
     name rclavicle
     direction -0.988403 0.151789 0.00439714   
     length 3.6942  
     axis 0 0 0   XYZ 
    dof ry rz
    limits (-10.0 20.0)
           (-20.0 0.0)
  end
  begin
     id 25 
     name rhumerus
     direction -1 -4.48978e-011 1.62495e-027  
     length 5.22819   
     axis 180 30 90   XYZ
    dof rx ry rz
    limits (-90.0 60.0)
           (-90.0 90.0)
           (-90.0 90.0)
  end
  begin
     id 26 
     name rradius
     direction -1 -4.48961e-011 3.47796e-027   
     length 3.40764   
     axis 180 30 90   XYZ
    dof rx
    limits (-10.0 170.0)
  end
  begin
     id 27 
     name rwrist
     direction -1 -4.48949e-011 5.89602e-027   
     length 1.70382   
     axis -3.27506e-015 -90 -90   XYZ
    dof ry
    limits (-180.0 0.0)
  end
  begin
     id 28
     name rhand
     direction -1 -4.48977e-011 1.17973e-026   
     length 0.583255   
     axis -7.52654e-015 -90 -90   XYZ
    dof rx rz
    limits (-90.0 90.0)
           (-45.0 45.0)
  end
  begin
     id 29
     name rfingers
     direction -1 -4.49099e-011 2.36408e-026   
     length 0.470235   
     axis -1.50534e-014 -90 -90   XYZ
    dof rx
    limits (0.0 90.0)
  end
  begin
     id 30
     name rthumb
     direction -0.707107 -6.35011e-011 0.707107   
     length 0.675167   
     axis -90 -45 -5.69224e-014   XYZ
    dof rx rz
    limits (-45.0 45.0)
           (-45.0 45.0)
  end
:hierarchy
  begin
    root lhipjoint rhipjoint lowerback
    lhipjoint lfemur
    lfemur ltibia
    ltibia lfoot
    lfoot ltoes
    rhipjoint rfemur
    rfemur rtibia
    rtibia rfoot
    rfoot rtoes
    lowerback upperback
    upperback thorax
    thorax lowerneck lclavicle rclavicle
    lowerneck upperneck
    upperneck head
    lclavicle lhumerus
    lhumerus lradius
    lradius lwrist
    lwrist lhand lthumb
    lhand lfingers
    rclavicle rhumerus
    rhumerus rradius
    rradius rwrist
    rwrist rhand rthumb
    rhand rfingers
  end

#!OML:ASF G:\JayActor3\Patient Classification 1\Patient 1\Session 2\male.ASF
:FULLY-SPECIFIED
:DEGREES
667
root -22.2539 15.8469 -6.00167 619.193 -101.504 -619.33
lowerback 0.806204 5.78673 9.958
upperback -0.660753 7.8345 -1.67081
thorax 0.421868 3.92187 -7.21585
lowerneck -5.94025 -6.53791 -8.94848
upperneck -15.8064 -7.90428 10.6045
head -2.90951 -4.03742 4.74561
rclavicle 6.51517e-014 3.33958e-014
rhumerus -28.599 36.1373 -48.7718
rradius 84.5987
rwrist -21.0413
rhand -9.70987 5.2861
rfingers 7.12502
rthumb 16.263 -24.0518
lclavicle 6.51517e-014 3.33958e-014
lhumerus -44.7568 -12.3855 26.3803
lradius 75.5943
lwrist 41.1232
lhand -4.45058 18.0453
lfingers 7.12502
lthumb 21.3212 46.8924
rfemur 25.9785 -4.96355 33.3659
rtibia 16.0861
rfoot -1.76505 7.25462
rtoes 28.0971
lfemur -38.7873 4.88495 -12.9759
ltibia 30.6125
lfoot -6.49827 3.13589
ltoes -17.6071
668
root -22.5163 15.8214 -5.98786 618.448 -101.025 -618.709
lowerback 0.650127 5.74387 9.47352
upperback -0.720446 7.75932 -1.99653
thorax 0.414836 3.8846 -7.28117
lowerneck -5.73691 -6.5306 -8.88317
upperneck -15.9016 -7.88355 10.8668
head -2.95901 -4.04609 4.82636
rclavicle -1.09779e-013 1.11319e-014
rhumerus -29.1816 35.5893 -49.3969
rradius 84.4023
rwrist -21.5352
rhand -9.61251 5.28835
rfingers 7.12502
rthumb 16.3568 -24.0419
lclavicle -1.09779e-013 1.11319e-014
lhumerus -44.3437 -11.1332 26.4314
lradius 76.2879
lwrist 41.4322
lhand -4.6967 18.0445
lfingers 7.12502
lthumb 21.0848 46.9182
rfemur 25.498 -5.36259 32.3909
rtibia 18.6163
rfoot -0.286827 6.59503
rtoes 29.8465
lfemur -38.8982 5.74834 -13.8252
ltibia 32.2095
lfoot -4.02033 3.26286
ltoes -15.7256
669
root -22.772 15.807 -5.97527 616.747 -100.407 -617.237
lowerback 0.651993 5.65516 8.83759
upperback -0.742383 7.63452 -2.36904
thorax 0.336943 3.82031 -7.32939
lowerneck -5.55103 -6.54605 -8.83165
upperneck -15.9868 -7.88934 11.1555
head -2.99817 -4.06851 4.91599
rclavicle 8.49804e-015 -1.59028e-014
rhumerus -29.8248 34.8618 -50.2585
rradius 83.9042
rwrist -21.6071
rhand -9.70922 5.38924
rfingers 7.12502
rthumb 16.2636 -23.9487
lclavicle 8.49804e-015 -1.59028e-014
lhumerus -43.7433 -9.88154 26.7082
lradius 76.634
lwrist 41.8078
lhand -5.06024 18.0971
lfingers 7.12502
lthumb 20.7355 47.0092
rfemur 24.752 -5.86702 31.1788
rtibia 21.6726
rfoot 1.39569 5.62746
rtoes 31.4357
lfemur -38.9315 6.64394 -14.8743
ltibia 33.7939
lfoot -1.76918 2.95037
ltoes -13.437
670
root -23.0172 15.7977 -5.96468 614.09 -99.7233 -614.94
lowerback 0.867106 5.5328 8.1135
upperback -0.725082 7.47693 -2.7578
thorax 0.166677 3.73623 -7.36692
lowerneck -5.41515 -6.58824 -8.80839
upperneck -16.005 -7.92679 11.4591
head -3.00425 -4.10427 5.00983
rclavicle -1.41137e-014 1.74931e-014
rhumerus -30.5359 33.9913 -51.2946
rradius 83.1831
rwrist -21.2235
rhand -10.0077 5.60313
rfingers 7.12502
rthumb 15.9762 -23.758
lclavicle -1.41137e-014 1.74931e-014
lhumerus -42.9425 -8.66604 27.2349
lradius 76.6185
lwrist 42.1395
lhand -5.50915 18.1864
lfingers 7.12502
lthumb 20.3042 47.1451
rfemur 23.7907 -6.39224 29.8541
rtibia 25.2043
rfoot 3.17672 4.34805
rtoes 32.6202
lfemur -38.7887 7.47065 -15.9857
ltibia 35.3226
lfoot -0.0837705 2.25034
ltoes -11.0393
671
root -23.2507 15.7909 -5.95666 610.667 -99.0626 -612.005
lowerback 1.28821 5.38804 7.37871
upperback -0.675962 7.29587 -3.12847
thorax -0.0922367 3.637 -7.39818
lowerneck -5.3398 -6.64375 -8.80765
upperneck -15.9135 -7.98125 11.7501
head -2.96585 -4.14392 5.09666
rclavicle -7.06183e-014 4.13472e-014
rhumerus -31.2728 33.0541 -52.4442
rradius 82.2929
rwrist -20.457
rhand -10.4562 5.91049
rfingers 7.12502
rthumb 15.5443 -23.4848
lclavicle -7.06183e-014 4.13472e-014
lhumerus -41.9721 -7.52274 28.01
lradius 76.2497
lwrist 42.3121
lhand -6.00125 18.2905
lfingers 7.12502
lthumb 19.8312 47.2987
rfemur 22.6682 -6.88664 28.534
rtibia 29.0944
rfoot 5.00619 2.81167
rtoes 33.2999
lfemur -38.4004 8.17635 -17.0229
ltibia 36.7397
lfoot 0.864651 1.27689
ltoes -8.77548
672
root -23.474 15.7878 -5.95088 606.922 -98.4791 -608.84
lowerback 1.85986 5.23699 6.69223
upperback -0.614167 7.10603 -3.45518
thorax -0.421933 3.53036 -7.42229
lowerneck -5.29538 -6.69329 -8.81392
upperneck -15.6995 -8.03173 12.0057
head -2.888 -4.1767 5.16787
rclavicle 9.87711e-014 -4.77083e-014
rhumerus -31.9874 32.1505 -53.6631
rradius 81.2623
rwrist -19.4323
rhand -10.9939 6.25677
rfingers 7.12502
rthumb 15.0263 -23.178
lclavicle 9.87711e-014 -4.77083e-014
lhumerus -40.8945 -6.48783 29.0117
lradius 75.5541
lwrist 42.1891
lhand -6.4695 18.3879
lfingers 7.12502
lthumb 19.381 47.4421
rfemur 21.4245 -7.30873 27.2969
rtibia 33.2077
rfoot 6.85519 1.11076
rtoes 33.4117
lfemur -37.7611 8.78408 -17.9039
ltibia 37.9858
lfoot 1.15098 0.326344
ltoes -6.88422
673
root -23.6898 15.7913 -5.94568 603.314 -97.9835 -605.848
lowerback 2.48242 5.09087 6.08942
upperback -0.553157 6.91679 -3.72663
thorax -0.77625 3.42288 -7.43668
lowerneck -5.25377 -6.71828 -8.81715
upperneck -15.3838 -8.05633 12.2124
head -2.78512 -4.19236 5.22011
rclavicle -3.44022e-014 2.06736e-014
rhumerus -32.6253 31.3526 -54.9226
rradius 80.1008
rwrist -18.2927
rhand -11.5194 6.57628
rfingers 7.12502
rthumb 14.5201 -22.8956
lclavicle -3.44022e-014 2.06736e-014
lhumerus -39.7553 -5.56641 30.2175
lradius 74.5596
lwrist 41.6817
lhand -6.85476 18.4814
lfingers 7.12502
lthumb 19.0105 47.5724
rfemur 20.0715 -7.63742 26.1744
rtibia 37.4189
rfoot 8.57184 -0.685738
rtoes 32.6464
lfemur -36.9099 9.29678 -18.5902
ltibia 39.0074
lfoot 0.95161 -0.455292
ltoes -5.49351
674
root -23.8997 15.8031 -5.93949 600.078 -97.5468 -603.197
lowerback 3.07303 4.95422 5.56196
upperback -0.514656 6.73212 -3.94725
thorax -1.13134 3.31719 -7.43424
lowerneck -5.17982 -6.71204 -8.81825
upperneck -14.9951 -8.04772 12.3682
head -2.67245 -4.18824 5.25575
rclavicle -2.51727e-014 7.95139e-015
rhumerus -33.1458 30.7117 -56.2137
rradius 78.7817
rwrist -17.1419
rhand -11.9618 6.82082
rfingers 7.12502
rthumb 14.0939 -22.6812
lclavicle -2.51727e-014 7.95139e-015
lhumerus -38.6116 -4.77887 31.619
lradius 73.3317
lwrist 40.8398
lhand -7.22794 18.6146
lfingers 7.12502
lthumb 18.6516 47.7405
rfemur 18.5925 -7.87757 25.1534
rtibia 41.625
rfoot 9.90995 -2.46139
rtoes 30.7678
lfemur -35.9006 9.6843 -19.1021
ltibia 39.7651
lfoot 0.464795 -0.977478
ltoes -4.75574
675
root -24.1049 15.8224 -5.93086 597.125 -97.1154 -600.751
lowerback 3.55959 4.83161 5.06397
upperback -0.498278 6.55602 -4.13112
thorax -1.4494 3.21725 -7.39705
lowerneck -5.08277 -6.68114 -8.82441
upperneck -14.5573 -8.01361 12.4721
head -2.55473 -4.16816 5.27621
rclavicle 6.16605e-014 -9.54166e-015
rhumerus -33.5359 30.2182 -57.5273
rradius 77.2867
rwrist -16.0174
rhand -12.2795 6.98033
rfingers 7.12502
rthumb 13.7877 -22.5428
lclavicle 6.16605e-014 -9.54166e-015
lhumerus -37.4791 -4.1032 33.2163
lradius 71.9057
lwrist 39.7359
lhand -7.56957 18.7885
lfingers 7.12502
lthumb 18.323 47.9456
rfemur 16.9798 -8.03861 24.1826
rtibia 45.7557
rfoot 10.6871 -4.0585
rtoes 28.217
lfemur -34.7798 9.93126 -19.5261
ltibia 40.2456
lfoot -0.158655 -1.20708
ltoes -4.56423
676
root -24.3052 15.8494 -5.91954 594.3 -96.6737 -598.342
lowerback 3.93466 4.71929 4.57556
upperback -0.50557 6.38504 -4.28521
thorax -1.72972 3.1216 -7.3213
lowerneck -4.98154 -6.63042 -8.83754
upperneck -14.076 -7.95841 12.5342
head -2.4296 -4.13453 5.28447
rclavicle 3.47376e-014 1.59028e-015
rhumerus -33.7982 29.8566 -58.8666
rradius 75.5992
rwrist -14.9331
rhand -12.4523 7.04967
rfingers 7.12502
rthumb 13.6211 -22.4847
lclavicle 3.47376e-014 1.59028e-015
lhumerus -36.3798 -3.52916 34.9987
lradius 70.3126
lwrist 38.4752
lhand -7.8495 18.9772
lfingers 7.12502
lthumb 18.0536 48.1593
rfemur 15.2328 -8.14594 23.2419
rtibia 49.7599
rfoot 10.7972 -5.37265
rtoes 25.3557
lfemur -33.5781 10.0646 -19.9165
ltibia 40.4595
lfoot -0.865419 -1.29765
ltoes -4.64018
677
root -24.5011 15.8838 -5.90549 591.406 -96.2029 -595.766
lowerback 4.17771 4.61528 4.06902
upperback -0.523787 6.21671 -4.41831
thorax -1.94968 3.03042 -7.19839
lowerneck -4.92494 -6.57019 -8.85769
upperneck -13.5451 -7.89267 12.5684
head -2.28547 -4.09222 5.28261
rclavicle 2.79292e-014 9.54166e-015
rhumerus -33.929 29.5848 -60.2267
rradius 73.7148
rwrist -13.8783
rhand -12.487 7.05546
rfingers 7.12502
rthumb 13.5877 -22.4811
lclavicle 2.79292e-014 9.54166e-015
lhumerus -35.3302 -3.04666 36.9561
lradius 68.6006
lwrist 37.2047
lhand -8.12695 19.1896
lfingers 7.12502
lthumb 17.7867 48.3962
rfemur 13.3592 -8.20863 22.3007
rtibia 53.5883
rfoot 10.2564 -6.2897
rtoes 22.7503
lfemur -32.3302 10.1166 -20.3246
ltibia 40.4377
lfoot -1.58388 -1.28668
ltoes -4.69439
